<svg width="98" height="98" viewBox="0 0 98 98" fill="none" xmlns="http://www.w3.org/2000/svg">
<path d="M36.9314 89.7125H61.3588C81.7151 89.7125 89.8576 81.57 89.8576 61.2137V36.7862C89.8576 16.43 81.7151 8.28751 61.3588 8.28751H36.9314C16.5751 8.28751 8.43262 16.43 8.43262 36.7862V61.2137C8.43262 81.57 16.5751 89.7125 36.9314 89.7125Z" stroke="black" stroke-width="5" stroke-linecap="round" stroke-linejoin="round"/>
<path d="M49.1451 63.2494C57.0148 63.2494 63.3945 56.8697 63.3945 49C63.3945 41.1303 57.0148 34.7506 49.1451 34.7506C41.2754 34.7506 34.8958 41.1303 34.8958 49C34.8958 56.8697 41.2754 63.2494 49.1451 63.2494Z" stroke="black" stroke-width="5" stroke-linecap="round" stroke-linejoin="round"/>
<path d="M72.091 28.6437H72.1381" stroke="black" stroke-width="3" stroke-linecap="round" stroke-linejoin="round"/>
</svg>
